Coordinates
version=1
nRows=18
nColumns=22
inDegrees=yes

Units are S.I. units (second, meters, Newtons, ...)
If the header above contains a line with 'inDegrees', this indicates whether rotational values are in degrees (yes) or radians (no).

endheader
time	pelvis_tilt	pelvis_list	pelvis_rotation	pelvis_tx	pelvis_ty	pelvis_tz	hip_flexion_r	hip_adduction_r	hip_rotation_r	knee_angle_r	ankle_angle_r	subtalar_angle_r	hip_flexion_l	hip_adduction_l	hip_rotation_l	knee_angle_l	ankle_angle_l	subtalar_angle_l	lumbar_extension	lumbar_bending	lumbar_rotation
      1.71000000	      1.55389964	      5.34175377	    -28.74351832	      0.27842751	      0.84043509	      0.22965477	     25.68404011	    -12.14051641	      2.96475657	    -81.24639022	     10.78205348	    -19.23903818	     10.15193430	     10.27546938	     -0.67893458	    -42.49579029	     29.94559758	    -14.15612728	    -16.42956397	     -7.83701381	     -1.56026087
      1.72000000	      1.28551530	      4.60605737	    -29.07438185	      0.29454402	      0.84374915	      0.24173551	     27.90311755	    -11.05903279	      2.78843513	    -80.18029413	     11.50268236	    -19.11425393	      7.90335276	      9.21965183	     -0.54153384	    -41.31562229	     29.01834487	    -13.41732926	    -16.24038251	     -6.90619460	     -2.88824000
      1.73000000	      0.94719932	      3.75840465	    -29.46906679	      0.31100423	      0.84795591	      0.25428442	     29.73000024	     -9.80065736	      2.38420875	    -78.36731977	     12.06116419	    -18.69641871	      5.57717648	      7.97714345	     -0.51253414	    -39.95376636	     27.61262828	    -12.53766951	    -15.95214647	     -5.82291447	     -4.14926089
      1.74000000	      0.57754782	      2.85963111	    -29.90835774	      0.32777032	      0.85293510	      0.26727864	     31.14456247	     -8.46079483	      1.77985069	    -75.85209484	     12.51059732	    -18.15930616	      3.20978308	      6.63030442	     -0.60674034	    -38.46049502	     25.65246385	    -11.38283640	    -15.60221630	     -4.68087421	     -5.37617768
      1.75000000	      0.20307058	      1.91743904	    -30.36923716	      0.34486851	      0.85857527	      0.28066334	     32.10551810	     -7.08382591	      0.98402710	    -72.67142452	     12.84064170	    -17.60849198	      0.82174370	      5.22283121	     -0.77625068	    -36.90618543	     23.14945289	     -9.98638778	    -15.22691111	     -3.49699685	     -6.55972508
      1.76000000	     -0.15711908	      0.97052100	    -30.81885749	      0.36226283	      0.86471798	      0.29436534	     32.62121559	     -5.72852989	      0.01282917	    -68.88002848	     13.02911524	    -17.05474766	     -1.53569315	      3.81162937	     -0.98697450	    -35.35682090	     20.08583296	     -8.35220535	    -14.84811103	     -2.32220780	     -7.71954549
      1.77000000	     -0.48928072	      0.05689755	    -31.23788231	      0.37997522	      0.87116608	      0.30832413	     32.71955188	     -4.44752167	     -1.12149443	    -64.55588262	     12.99268798	    -16.42442995	     -3.80640852	      2.46095749	     -1.15750845	    -33.89296920	     16.48199896	     -6.52278922	    -14.45322575	     -1.20326445	     -8.85268047
      1.78000000	     -0.73759547	     -0.80376326	    -31.61245958	      0.39797897	      0.87779054	      0.32249036	     32.37731357	     -3.27015735	     -2.38379467	    -59.76634436	     12.83169000	    -15.58917630	     -6.00156603	      1.21957331	     -1.26744944	    -32.54688334	     12.43573637	     -4.67933755	    -14.09926343	     -0.19043731	     -9.96954579
      1.79000000	     -0.91388772	     -1.54312060	    -31.90936819	      0.41626343	      0.88433026	      0.33677390	     31.70877029	     -2.26107475	     -3.79806419	    -54.65481416	     12.24130604	    -14.33757268	     -8.02700286	      0.15897787	     -1.17948649	    -31.37802778	      8.00556761	     -2.71160598	    -13.72559686	      0.65296234	    -11.05087412
      1.80000000	     -0.97796498	     -2.16539471	    -32.14457252	      0.43476392	      0.89062571	      0.35120446	     30.71520356	     -1.36571193	     -5.27295228	    -49.32901857	     11.36229801	    -12.58499729	     -9.89345879	     -0.71434865	     -0.91166195	    -30.43744209	      3.38530957	     -0.84324548	    -13.37201479	      1.30063682	    -12.11268649
      1.81000000	     -0.93913946	     -2.59405301	    -32.30065414	      0.45344505	      0.89641477	      0.36568540	     29.54785402	     -0.64975489	     -6.81783078	    -43.99559935	      9.98769984	    -10.17022943	    -11.52543724	     -1.31915809	     -0.31885675	    -29.75412595	     -1.25863671	      0.95749619	    -12.97963153	      1.68066948	    -13.10400902
      1.82000000	     -0.80796771	     -2.83971866	    -32.41573476	      0.47216811	      0.90148844	      0.38027175	     28.28864050	     -0.02047960	     -8.27792026	    -38.82126968	      8.28622204	     -7.24771388	    -12.88019979	     -1.69024120	      0.50613876	    -29.41746614	     -5.69259995	      2.58555312	    -12.54926423	      1.79716518	    -14.01677398
      1.83000000	     -0.61837257	     -2.93423075	    -32.52997731	      0.49080490	      0.90568682	      0.39496364	     27.03866879	      0.59082084	     -9.54986681	    -33.98859501	      6.21502472	     -4.09325749	    -13.92046621	     -1.87356538	      1.49316360	    -29.49738060	     -9.65414919	      4.06802478	    -12.07949976	      1.69409119	    -14.75971903
      1.84000000	     -0.38984009	     -2.80405335	    -32.63530301	      0.50923852	      0.90877638	      0.40961464	     25.97363191	      1.09828601	    -10.51678965	    -29.74010461	      4.03604246	     -0.78200503	    -14.51934761	     -1.81041705	      2.62414827	    -30.10527140	    -13.02296841	      5.35050809	    -11.52390313	      1.32095473	    -15.40705212
      1.85000000	     -0.14480310	     -2.57170509	    -32.75631575	      0.52739900	      0.91077529	      0.42419924	     25.06654245	      1.58043817	    -11.19984425	    -26.15686141	      1.86339180	      2.24085289	    -14.69789944	     -1.62648523	      3.74790235	    -31.31562276	    -15.63075708	      6.42273537	    -10.95401305	      0.81082534	    -15.83782192
      1.86000000	      0.06434175	     -2.28963831	    -32.88370088	      0.54525079	      0.91158826	      0.43866257	     24.35574710	      2.05714551	    -11.63678311	    -23.31875097	     -0.07004647	      4.79045561	    -14.38961246	     -1.43438518	      4.65738204	    -33.20535801	    -17.46388651	      7.25807819	    -10.35611192	      0.26001337	    -16.12500696
      1.87000000	      0.24577159	     -2.03956341	    -33.05945309	      0.56279693	      0.91128496	      0.45303708	     23.77509618	      2.56239580	    -11.89274230	    -21.23350071	     -1.62990544	      6.62085321	    -13.68699701	     -1.30598356	      5.24049557	    -35.70237368	    -18.59664677	      7.81093614	     -9.79132518	     -0.25707339	    -16.16061724
      1.88000000	      0.41138952	     -1.93619924	    -33.22202186	      0.58011316	      0.90996451	      0.46725807	     23.20054288	      3.13066609	    -12.16429022	    -19.84296183	     -2.65380677	      7.41882758	    -12.67269018	     -1.38849043	      5.47118176	    -38.77025091	    -19.08052460	      8.10073424	     -9.34410977	     -0.61945629	    -16.03674838
